<?xml version="1.0" encoding="utf-8"?>
<!-- Generator: Adobe Illustrator 15.1.0, SVG Export Plug-In . SVG Version: 6.00 Build 0)  -->
<!DOCTYPE svg PUBLIC "-//W3C//DTD SVG 1.1//EN" "http://www.w3.org/Graphics/SVG/1.1/DTD/svg11.dtd">
<svg version="1.1" xmlns="http://www.w3.org/2000/svg" xmlns:xlink="http://www.w3.org/1999/xlink" x="0px" y="0px"
	 width="595.28px" height="595.28px" viewBox="0 0 595.28 595.28" enable-background="new 0 0 595.28 595.28" xml:space="preserve">
<g id="Ebene_1">
	<image overflow="visible" width="279" height="140" xlink:href="download.png"  transform="matrix(0.9999 0 0 0.9999 158 228)">
	</image>
</g>
<g id="Ebene_2">
	<path fill="#363C00" d="M400.001,361.979c-16.661,0-30.216-13.555-30.216-30.216s13.555-30.216,30.216-30.216
		s30.216,13.555,30.216,30.216S416.662,361.979,400.001,361.979z"/>
	<path fill="#363C00" d="M356.964,361.271c-10.58-0.064-20.37-5.836-25.55-15.062l-16.294-29.02l-16.942,29.332
		c-5.254,9.098-15.044,14.749-25.551,14.749c-0.041,0-0.17,0-0.211,0c-8.842-0.063-17.126-4.11-22.627-10.825
		c-5.416,6.604-13.636,10.825-22.824,10.825h-38.658c-10.51,0-20.303-5.654-25.557-14.758c-5.253-9.101-5.252-20.408,0.005-29.509
		l42.857-74.2c5.253-9.098,15.044-14.75,25.551-14.75c0.052,0,0.209,0.001,0.209,0.001c10.592,0.075,20.382,5.865,25.549,15.111
		l16.129,28.864l16.881-29.227c5.255-9.098,15.024-14.75,25.494-14.75l0.315,0.002c10.503,0.065,20.293,5.836,25.472,15.061
		l16.293,29.02l16.943-29.333c5.257-9.099,15.052-14.751,25.563-14.751c5.164,0,10.264,1.369,14.747,3.958
		c6.825,3.941,11.707,10.306,13.745,17.92c2.039,7.614,0.99,15.565-2.952,22.391l-42.857,74.2
		c-5.255,9.098-15.046,14.749-25.552,14.749C357.144,361.271,356.998,361.271,356.964,361.271z"/>
	<path fill="#5E6400" d="M272.627,344.263c-0.03,0-0.059,0-0.089,0c-4.497-0.032-8.629-2.477-10.823-6.402l-30.731-54.995
		l-21.022,36.397h17.002c6.904,0,12.5,5.597,12.5,12.5s-5.596,12.5-12.5,12.5h-38.658c-4.466,0-8.593-2.383-10.826-6.251
		c-2.233-3.868-2.232-8.634,0.001-12.501l42.857-74.2c2.234-3.868,6.361-6.248,10.824-6.248c0.03,0,0.059,0,0.089,0
		c4.497,0.032,8.629,2.477,10.823,6.402l30.731,54.994l31.853-55.148c2.247-3.89,6.385-6.296,10.9-6.248
		c4.492,0.028,8.624,2.463,10.823,6.38l30.914,55.061l31.88-55.194c3.453-5.978,11.098-8.025,17.076-4.572
		c5.979,3.453,8.025,11.098,4.572,17.076l-42.857,74.201c-2.234,3.868-6.361,6.248-10.824,6.248c-0.025,0-0.051,0-0.076,0
		c-4.492-0.027-8.624-2.463-10.823-6.38l-30.914-55.061l-31.879,55.193C281.217,341.883,277.089,344.263,272.627,344.263z"/>
	<circle fill="#5E6400" cx="400.001" cy="331.763" r="13.208"/>
</g>
</svg>
